<svg xmlns="http://www.w3.org/2000/svg" viewBox="0 0 892.08 239.91"><defs><style>.cls-1{fill:#000;}</style></defs><title>Ativo 6</title><g id="Camada_2" data-name="Camada 2"><g id="Camada_1-2" data-name="Camada 1"><path class="cls-1" d="M117.83,191.61c-24.65,0-46-24.65-49.72-58.92H231.49C230.23,61.24,192.63,4.83,117.83,4.83,39.28,4.83,0,63.33,0,121.41c0,58.5,39.28,117,117.83,117,69.37,0,100.29-40.53,109.06-77.3L165.47,149C158.78,174.06,145.41,191.61,117.83,191.61ZM158.05,65.88c13.57,0,22.67,8.12,28.84,21.3a5.74,5.74,0,0,1-5.17,8.2h-9.27a5.81,5.81,0,0,0-4.89,2.54,11.53,11.53,0,0,1-19.31,0,5.78,5.78,0,0,0-4.88-2.54H134a5.75,5.75,0,0,1-5.15-8.27C135.13,74.13,146,65.88,158.05,65.88Zm-74.41,0c12.74,0,21.54,7.15,27.67,18.92a7.27,7.27,0,0,1-6.48,10.58H98.72a7.48,7.48,0,0,0-6,3.1,11.52,11.52,0,0,1-18.52,0,7.48,7.48,0,0,0-6-3.1H62.12a7.29,7.29,0,0,1-6.31-10.91C62.24,73,72.42,65.88,83.64,65.88Z"/><path class="cls-1" d="M463,235.24H392c-4.68-17-7.66-43.37-7.66-61.66v-3.82c-18.71,41.67-47.62,70.15-93.54,70.15-45.07,0-64.2-26.78-64.2-57.4,0-48,61.65-84.61,156.47-99.92-4.68-20.83-23.39-33.16-44.22-32.74-32.74.43-48.9,25.94-56.55,49.32L220.68,84.72C243.22,32.84,281.91,2.23,346.11,2.23c63.78,0,107.58,34,107.58,88v75.68C453.69,194.84,456.67,213.55,463,235.24ZM383.11,110.66c-68,14.88-87.17,38.26-87.17,56.12,0,13.61,9.78,25.51,27.21,25.51C351.22,192.29,377.58,153.17,383.11,110.66Z"/><path class="cls-1" d="M448,155.73l52.72-19.14c17.86,38.69,42.95,55.7,69.31,55.7,19.56,0,30.61-8.5,30.61-22.11,0-16.58-26.36-27.64-67.18-37.41-47.62-12.34-73.56-28.92-73.56-63.78,0-33.17,28.07-66.76,95.25-66.76,53.15,0,93.12,29.76,114,67.18l-51.87,23c-14-23.38-35.72-42.52-59.11-42.52-20.41,0-28.91,9.36-28.91,18.71,0,14,20,21.26,54,29.76,48.47,11.91,86.74,27.22,86.74,70.16,0,44.22-42.52,71.43-94.39,71.43C508.78,239.91,464.56,203.35,448,155.73Z"/><path class="cls-1" d="M778.42,186.78c-24.65,0-46-24.65-49.72-58.92H892.08C890.82,56.41,853.22,0,778.42,0,699.87,0,660.59,58.5,660.59,116.58c0,58.5,39.28,117,117.83,117,69.36,0,100.29-40.53,109.06-77.3l-61.42-12.12C819.37,169.23,806,186.78,778.42,186.78ZM818.64,61.05c13.57,0,22.67,8.12,28.84,21.29a5.75,5.75,0,0,1-5.17,8.21H833a5.81,5.81,0,0,0-4.89,2.54,11.53,11.53,0,0,1-19.31,0A5.79,5.79,0,0,0,804,90.55h-9.38a5.75,5.75,0,0,1-5.15-8.27C795.72,69.3,806.58,61.05,818.64,61.05Zm-74.41,0C757,61.05,765.76,68.2,771.9,80a7.27,7.27,0,0,1-6.49,10.58h-6.1a7.48,7.48,0,0,0-6,3.1,11.53,11.53,0,0,1-18.53,0,7.45,7.45,0,0,0-6-3.1h-6.15a7.29,7.29,0,0,1-6.31-10.91C722.83,68.19,733,61.05,744.23,61.05Z"/></g></g></svg>