<?xml version="1.0" encoding="iso-8859-1"?>
<!-- Generator: Adobe Illustrator 18.1.1, SVG Export Plug-In . SVG Version: 6.00 Build 0)  -->
<svg version="1.1" id="Capa_1" xmlns="http://www.w3.org/2000/svg" xmlns:xlink="http://www.w3.org/1999/xlink" x="0px" y="0px"
	 viewBox="0 0 48.558 48.558" style="enable-background:new 0 0 48.558 48.558;" xml:space="preserve">
<g>
	<g>
		<path style="fill:#030104;" d="M11.704,23.455c0,0-1.494-0.515-1.253,1.092c0.243,1.604,1.158,2.907-0.288,3.534
			c-1.446,0.626-2.795,1.529-1.494,2.09c0.852,0.367,2.023,0.768,2.922,1.432c0.099-2.479,1.157-4.808,2.181-6.504L11.704,23.455z"
			/>
		<path style="fill:#030104;" d="M38.94,40.423c-0.677,0.012-1.331-0.09-1.812-0.188c-0.479-0.1-0.789-0.197-0.789-0.197
			s1.316,0.113,2.53-0.189c0.603-0.138,1.164-0.4,1.407-0.656c0.057-0.064,0.105-0.119,0.124-0.168
			c0.007-0.008,0.003-0.008,0.006-0.014c-0.024-0.638-0.089-1.332-0.214-2.061c-0.398,0.113-0.831,0.169-1.254,0.174
			c-0.678,0.012-1.331-0.09-1.811-0.188c-0.48-0.1-0.789-0.197-0.789-0.197s1.315,0.113,2.529-0.189
			c0.442-0.102,0.86-0.27,1.149-0.453c-0.313-1.32-0.843-2.688-1.734-3.918c-0.374-0.517-0.621-1.551-0.868-2.312
			c-2.123-2.353-5.406-6.777-4.839-11.138c0.08-0.613,0.173-1.225,0.265-1.837c0.166-1.092,0.336-2.221,0.427-3.33
			c0.159-1.956-0.31-3.167-1.357-4.989l-0.073-0.129c-0.428-0.742-0.961-1.68-1.172-2.632c-0.055,0.066-0.113,0.132-0.168,0.197
			c-0.277,0.289-0.588,0.529-0.826,0.694c-0.246,0.154-0.41,0.257-0.41,0.257s0.142-0.131,0.353-0.327
			c0.202-0.204,0.453-0.491,0.656-0.803c0.091-0.161,0.19-0.316,0.241-0.473c0.033-0.068,0.05-0.135,0.063-0.198
			c-0.003-0.07,0.007-0.139,0.009-0.208c-0.731-1.045-1.56-2.244-1.986-2.919C28.143,1.313,27.451,0,26.211,0
			c-1.129,0-2.714,1.089-4.988,4.707c0,0-0.038,0.006-0.086,0.014c0.086,0.071,0.172,0.142,0.251,0.227
			c0.229,0.228,0.424,0.505,0.613,0.784c0.173,0.288,0.338,0.58,0.458,0.87c0.13,0.285,0.208,0.568,0.286,0.806
			c0.14,0.483,0.164,0.819,0.164,0.819s-0.054-0.066-0.135-0.188c-0.073-0.125-0.203-0.293-0.325-0.501
			c-0.255-0.408-0.594-0.952-0.934-1.496c-0.296-0.455-0.59-0.906-0.877-1.225c-0.401,0.084-0.951,0.223-1.519,0.426
			c0.025,0.042,0.048,0.078,0.074,0.123c0.222,0.391,0.49,0.922,0.697,1.476c0.214,0.552,0.367,1.127,0.461,1.566
			c0.093,0.44,0.111,0.749,0.111,0.749s-0.192-0.243-0.415-0.634c-0.222-0.39-0.489-0.922-0.697-1.476
			c-0.213-0.552-0.366-1.127-0.46-1.566c-0.011-0.052-0.018-0.096-0.027-0.145C18.471,5.49,18.095,5.677,17.776,5.9
			c-0.003,0.43,0.077,0.965,0.159,1.503c0.108,0.632,0.215,1.264,0.296,1.739c0.047,0.237,0.061,0.449,0.09,0.591
			c0.02,0.145,0.024,0.23,0.024,0.23s-0.206-0.267-0.422-0.721c-0.1-0.229-0.23-0.493-0.322-0.792
			c-0.103-0.296-0.174-0.624-0.236-0.954c-0.045-0.334-0.083-0.671-0.063-0.993c0.005-0.214,0.041-0.412,0.087-0.6
			c-0.594-0.108-2.014-0.336-3.483-0.336c-2.395,0-4.903,0.607-4.102,3.332c1.105,3.757,1.786,4.727,2.079,5.653
			c0.071,0.025,0.15,0.047,0.241,0.053c0.161,0.034,0.346,0.024,0.531,0.024c0.371-0.022,0.745-0.099,1.022-0.173
			c0.275-0.086,0.458-0.144,0.458-0.144s-0.171,0.091-0.426,0.228c-0.262,0.126-0.624,0.277-1.012,0.375
			c-0.197,0.037-0.394,0.086-0.593,0.084c-0.038,0.004-0.074-0.002-0.111-0.002c0.026,0.148,0.044,0.304,0.052,0.479
			c0.072,1.518,0.723,5.783,4.12,7.301c0,0-0.964,1.042-1.948,2.671c-1.048,1.734-2.114,4.135-2.064,6.652
			c0.036,1.818,0.66,3.695,2.293,5.43c-0.016-0.023-0.028-0.041-0.028-0.041s0.076,0.035,0.208,0.095
			c0.322,0.147,0.639,0.267,0.961,0.361c-0.015-0.056-0.031-0.115-0.042-0.164c-0.041-0.158-0.059-0.269-0.059-0.267
			c-0.005-0.029,0.012-0.05,0.035-0.047c0.009,0,0.017,0.004,0.025,0.01c0,0,0.089,0.065,0.211,0.172
			c0.062,0.053,0.136,0.115,0.208,0.183c0.091,0.087,0.152,0.16,0.195,0.243c0.205,0.033,0.416,0.049,0.632,0.049
			c-0.007-0.025-0.014-0.045-0.022-0.076c-0.028-0.095-0.05-0.188-0.068-0.267c-0.041-0.158-0.059-0.269-0.059-0.267
			c-0.005-0.029,0.012-0.05,0.035-0.047c0.009,0,0.017,0.004,0.025,0.01c0,0,0.089,0.065,0.211,0.172
			c0.062,0.053,0.136,0.115,0.208,0.183c0.099,0.095,0.163,0.173,0.206,0.267c0.217-0.025,0.436-0.061,0.632-0.142
			c0.114-0.047,0.229-0.084,0.338-0.12c0.221-0.066,0.392-0.203,0.524-0.253c0.129-0.063,0.206-0.095,0.206-0.095
			s-0.046,0.068-0.134,0.184c-0.601,0.783-1.585,1.184-2.566,1.027c-0.256-0.041-0.54-0.114-0.774-0.227
			c-0.269-0.131-0.49-0.297-0.695-0.486c-0.174,0.889-0.949,8.56,2.548,10.253c0.027-0.206,0.107-0.405,0.191-0.552
			c0.089-0.153,0.193-0.25,0.193-0.25s0.079,0.119,0.129,0.287c0.048,0.17,0.084,0.393,0.055,0.607
			c-0.004,0.039-0.019,0.074-0.026,0.112c0.189,0.052,0.389,0.087,0.6,0.106c0-0.05-0.006-0.1,0.001-0.15
			c0.022-0.215,0.11-0.424,0.197-0.576c0.089-0.153,0.193-0.25,0.193-0.25s0.079,0.119,0.129,0.288
			c0.048,0.17,0.084,0.392,0.055,0.606c-0.003,0.031-0.015,0.06-0.021,0.09c0.889-0.035,1.943-0.33,3.208-0.987
			c0,0,1.487,0.219,3.668,0.219c1.575,0,3.512-0.114,5.513-0.508c0,0,1.2,0.705,2.737,0.839c-0.022-0.072-0.046-0.145-0.056-0.221
			c-0.031-0.215,0.002-0.438,0.049-0.607c0.048-0.17,0.125-0.29,0.125-0.29s0.105,0.095,0.195,0.248
			c0.09,0.152,0.18,0.358,0.204,0.575c0.017,0.107,0.017,0.217,0.007,0.322c0.217-0.002,0.438-0.019,0.662-0.049
			c-0.044-0.109-0.08-0.226-0.095-0.349c-0.032-0.215,0.001-0.438,0.048-0.608c0.045-0.168,0.122-0.289,0.122-0.289
			s0.106,0.096,0.196,0.248c0.089,0.152,0.179,0.359,0.203,0.576c0.017,0.11,0.016,0.223,0.005,0.332
			c1.706-0.427,3.458-1.92,4.341-5.857c0,0,0.145-0.78,0.18-1.969C39.961,40.352,39.442,40.416,38.94,40.423z M32.119,34.378
			c0,0.535-0.434,0.969-0.969,0.969s-0.969-0.434-0.969-0.969s0.434-0.969,0.969-0.969C31.686,33.409,32.119,33.842,32.119,34.378z
			 M28.485,37.997c0.929-0.305,1.849-0.637,2.789-0.898c0.427-0.119,0.711,0.162,0.78,0.59c0.078,0.479-0.293,0.857-0.936,0.912
			c0.113-0.336,0.205-0.609,0.33-0.98C30.396,37.739,29.521,38.448,28.485,37.997z M25.465,36.542
			c-0.265-0.059-0.541-0.068-0.815-0.1c-0.519,0.82-1.369,1.215-2.107,0.438c1.142-0.047,1.615-0.768,1.797-1.776
			c0.058,0.015,0.116,0.028,0.175,0.043c0.112,0.228,0.225,0.455,0.347,0.701c1.606,0.076,1.893,0.229,1.947,1.064
			c0.049,0.74-0.47,1.375-1.244,1.52c-0.476,0.088-0.879-0.24-1.071-0.812c0.398-0.042,0.837-0.019,1.213-0.16
			c0.182-0.067,0.247-0.448,0.364-0.687C25.87,36.694,25.674,36.589,25.465,36.542z M24.159,41.354
			c-0.283-0.332-0.494-0.578-0.781-0.912C24.229,40.405,24.359,40.554,24.159,41.354z M26.641,35.084
			c-0.67,0.026-1.364,0.065-2.007-0.082c-0.432-0.101-0.791-0.508-1.241-0.817c1.201,0,2.214-0.027,3.224,0.022
			c0.196,0.01,0.376,0.323,0.564,0.495C27.001,34.836,26.825,35.077,26.641,35.084z M26.837,26.542
			c0.111,0.336,0.301,0.786,0.627,1.157c0.114,0.166,0.271,0.301,0.431,0.426c-0.28,0.138-0.591,0.222-0.923,0.222
			c-1.165,0-2.109-0.945-2.109-2.109c-0.001-1.166,0.943-2.11,2.108-2.11c1.166,0,2.109,0.944,2.109,2.108
			c0,0.6-0.252,1.137-0.652,1.521c-0.045-0.022-0.088-0.047-0.133-0.071c-0.152-0.101-0.348-0.17-0.504-0.313
			c-0.342-0.257-0.574-0.629-0.765-0.899c-0.156-0.305-0.26-0.509-0.26-0.509c-0.006-0.012-0.019-0.018-0.032-0.015
			c-0.016,0.003-0.026,0.019-0.022,0.035C26.712,25.983,26.762,26.206,26.837,26.542z M26.595,33.356
			c-0.313-0.498,0.372-0.599,0.72-0.668c0.214-0.043,0.491-0.034,0.687-0.139c0.082-0.043,0.625-0.633,0.437-0.684
			c-0.503-0.137-1.054-0.123-1.556-0.264c-0.065-0.451,1.295-0.881,1.62-1.013c0.209-0.085,0.508,0.05,0.766,0.084
			c-0.051,0.255-0.076,0.519-0.156,0.763c-0.066,0.199-0.197,0.377-0.3,0.565c0.052,0.052,0.104,0.103,0.155,0.155
			c0.047,0.047,0.899-0.274,1.035-0.273c0.186,0.002,1.043,0.295,0.662,0.649c-0.146,0.135-0.383,0.218-0.589,0.235
			c-0.553,0.045-0.899,0.021-1.009,0.617c-0.16,0.87,0.117,1.576-0.249,2.428c-0.073-0.014-0.146-0.026-0.22-0.039
			c-0.051-0.836-0.104-1.672-0.155-2.521C28.453,33.449,26.85,33.763,26.595,33.356z M30.161,36.752
			c0.039,0.156-0.141,0.526-0.237,0.532c-0.567,0.035-0.777-0.352-0.899-0.928C29.562,36.249,30.015,36.168,30.161,36.752z
			 M29.623,13.231c0.008-0.002,0.016,0.002,0.018,0.01c0.002,0.007-0.002,0.014-0.008,0.017c0,0-0.728,0.317-1.404,0.708
			c-0.346,0.188-0.666,0.397-0.93,0.524c-0.266,0.125-0.47,0.182-0.47,0.182c-0.007,0.003-0.016,0-0.02-0.007
			c-0.002-0.005,0-0.012,0.002-0.016c0,0,0.127-0.156,0.36-0.35c0.117-0.094,0.254-0.208,0.418-0.303
			c0.162-0.097,0.354-0.159,0.537-0.237C28.853,13.426,29.623,13.231,29.623,13.231z M28.754,11.678
			c0.008-0.004,0.017-0.002,0.021,0.005c0.004,0.006,0.002,0.014-0.003,0.019c0,0-0.615,0.5-1.161,1.059
			c-0.282,0.274-0.535,0.561-0.754,0.755c-0.221,0.192-0.403,0.301-0.403,0.301c-0.006,0.005-0.016,0.005-0.021-0.002
			c-0.003-0.004-0.003-0.011-0.002-0.016c0,0,0.081-0.185,0.252-0.434c0.088-0.122,0.19-0.269,0.322-0.404
			c0.129-0.136,0.298-0.248,0.453-0.373C28.066,12.073,28.754,11.678,28.754,11.678z M24.978,11.92
			c0.005-0.117,0.083-0.211,0.128-0.323c0.109-0.22,0.317-0.388,0.494-0.563c0.21-0.144,0.404-0.3,0.627-0.376
			c0.109-0.041,0.2-0.102,0.312-0.113c0.105-0.019,0.203-0.037,0.295-0.054c0.178-0.036,0.319-0.003,0.421-0.01
			c0.101,0.003,0.158,0.004,0.158,0.004c0.016,0,0.029,0.014,0.028,0.03c0,0.014-0.011,0.025-0.022,0.028
			c0,0-0.057,0.013-0.156,0.036c-0.094,0.031-0.25,0.036-0.397,0.112c-0.149,0.073-0.318,0.135-0.48,0.262
			c-0.176,0.097-0.313,0.266-0.46,0.409c-0.109,0.182-0.227,0.345-0.292,0.523c-0.104,0.157-0.179,0.315-0.257,0.455
			c-0.094,0.136-0.118,0.27-0.182,0.361c-0.049,0.093-0.088,0.15-0.088,0.15c-0.008,0.016-0.027,0.023-0.043,0.015
			c-0.005-0.003-0.012-0.011-0.015-0.015c0,0-0.028-0.057-0.057-0.164c-0.027-0.105-0.079-0.268-0.06-0.458
			C24.947,12.133,24.962,12.03,24.978,11.92z M21.666,17.077c0.119-0.038,0.266-0.06,0.401-0.125
			c0.142-0.055,0.259-0.15,0.356-0.252c0.076-0.122,0.131-0.247,0.151-0.388c0.028-0.132,0.017-0.269,0.027-0.377
			c-0.005-0.083-0.01-0.152-0.014-0.214c-0.334-0.066-0.672-0.303-0.758-0.453c-0.126-0.22,0.34-0.159,0.74-0.388
			c0.4-0.23,0.584-0.661,0.71-0.442c0.093,0.162,0.125,0.629-0.022,0.958c0.049,0.047,0.092,0.092,0.152,0.132
			c0.113,0.086,0.24,0.135,0.38,0.168c0.14,0.004,0.29-0.011,0.43-0.073c0.141-0.049,0.261-0.137,0.372-0.195
			c0.204-0.151,0.34-0.251,0.34-0.251s-0.113,0.128-0.282,0.321c-0.099,0.082-0.201,0.198-0.345,0.287
			c-0.139,0.1-0.314,0.167-0.515,0.2c-0.201,0.003-0.398-0.031-0.564-0.107c-0.046-0.018-0.075-0.042-0.116-0.064
			c-0.007,0.045-0.014,0.092-0.022,0.145c-0.039,0.14-0.063,0.305-0.138,0.471c-0.063,0.171-0.179,0.335-0.323,0.474
			c-0.165,0.118-0.336,0.195-0.506,0.222c-0.164,0.038-0.319,0.029-0.447,0.04c-0.256-0.016-0.426-0.027-0.426-0.027
			S21.416,17.115,21.666,17.077z M21.119,23.66c0.296-0.059,0.616-0.122,0.955-0.19c0.332-0.097,0.681-0.194,1.041-0.281
			c0.36-0.088,0.731-0.174,1.111-0.245c0.378-0.077,0.742-0.223,1.118-0.324c0.377-0.101,0.753-0.201,1.124-0.3
			c0.356-0.137,0.711-0.259,1.061-0.372c0.354-0.108,0.695-0.21,1-0.351c0.309-0.133,0.617-0.238,0.902-0.34
			c0.531-0.259,1.029-0.432,1.341-0.6c0.336-0.148,0.53-0.255,0.53-0.255s-0.08,0.199-0.299,0.508
			c-0.205,0.332-0.568,0.719-1.035,1.18c-0.246,0.205-0.519,0.425-0.821,0.64c-0.295,0.232-0.624,0.444-0.988,0.617
			c-0.181,0.095-0.378,0.187-0.567,0.281c-0.201-0.047-0.405-0.079-0.62-0.079c-0.826,0-1.557,0.382-2.05,0.97
			c-0.115,0.026-0.229,0.059-0.346,0.072c-0.417,0.053-0.831,0.089-1.229,0.12c-0.399,0.031-0.784,0.049-1.147,0.06
			c-0.365-0.016-0.711-0.075-1.027-0.116c-1.268-0.17-2.074-0.439-2.074-0.439S19.93,23.9,21.119,23.66z M18.772,18.217
			c-0.265,0.124-0.63,0.24-0.994,0.389c-0.731,0.277-1.436,0.639-1.436,0.639c-0.007,0.004-0.016,0.001-0.02-0.006
			c-0.003-0.006-0.001-0.014,0.005-0.019c0,0,0.638-0.472,1.354-0.825c0.177-0.092,0.346-0.201,0.523-0.265
			c0.177-0.066,0.352-0.101,0.499-0.133c0.298-0.057,0.499-0.057,0.499-0.057c0.008,0,0.015,0.007,0.015,0.015
			c0,0.005-0.005,0.011-0.008,0.013C19.209,17.968,19.036,18.091,18.772,18.217z M16.008,15.247
			c0.066-0.078,0.123-0.211,0.258-0.332c0.068-0.063,0.141-0.132,0.219-0.205c0.076-0.083,0.179-0.12,0.277-0.183
			c0.194-0.134,0.435-0.197,0.675-0.28c0.246-0.038,0.505-0.105,0.746-0.062c0.117,0.031,0.239,0.024,0.336,0.09
			c0.098,0.052,0.19,0.101,0.275,0.147c0.163,0.098,0.264,0.237,0.332,0.321c0.068,0.087,0.098,0.143,0.098,0.143
			c0.008,0.016,0.002,0.035-0.014,0.043c-0.005,0.003-0.016,0.004-0.021,0.003c0,0-0.069-0.003-0.173-0.018
			c-0.111-0.002-0.233-0.062-0.398-0.068c-0.159-0.021-0.331-0.055-0.519-0.064c-0.182-0.054-0.383-0.057-0.594-0.077
			c-0.202,0.034-0.419,0.043-0.602,0.126c-0.199,0.055-0.349,0.153-0.497,0.23c-0.149,0.074-0.246,0.196-0.327,0.253
			c-0.077,0.066-0.121,0.103-0.121,0.103c-0.012,0.01-0.031,0.009-0.041-0.003c-0.009-0.01-0.009-0.025-0.002-0.036
			C15.917,15.376,15.95,15.329,16.008,15.247z M15.625,16.945c-0.008,0.001-0.015-0.005-0.016-0.013
			c-0.001-0.007,0.004-0.014,0.011-0.016c0,0,0.766-0.207,1.562-0.275c0.198-0.021,0.396-0.061,0.584-0.056
			c0.189,0.003,0.364,0.034,0.513,0.058c0.298,0.055,0.486,0.129,0.486,0.129c0.008,0.003,0.011,0.011,0.008,0.019
			c-0.002,0.005-0.008,0.008-0.013,0.01c0,0-0.206,0.051-0.498,0.072c-0.292,0.019-0.674-0.006-1.067,0
			C16.413,16.864,15.625,16.945,15.625,16.945z M20.359,44.895c-0.135-0.063-0.304-0.182-0.533-0.264
			c-0.112-0.042-0.233-0.088-0.361-0.136c-0.121-0.062-0.273-0.058-0.411-0.099c-0.279-0.086-0.59-0.08-0.895-0.111
			c-0.304,0.031-0.615,0.023-0.895,0.109c-0.137,0.043-0.293,0.039-0.408,0.098c-0.126,0.046-0.244,0.09-0.354,0.131
			c-0.227,0.078-0.413,0.21-0.545,0.271c-0.133,0.068-0.214,0.102-0.214,0.102s0.049-0.073,0.143-0.189
			c0.109-0.103,0.201-0.305,0.427-0.447c0.113-0.076,0.235-0.159,0.364-0.247c0.129-0.103,0.283-0.144,0.442-0.204
			c0.16-0.051,0.321-0.137,0.501-0.141c0.177-0.021,0.358-0.041,0.538-0.062c0.18,0.021,0.361,0.041,0.538,0.06
			c0.18,0.004,0.341,0.09,0.501,0.141c0.158,0.061,0.316,0.104,0.439,0.201c0.126,0.086,0.246,0.168,0.356,0.242
			c0.224,0.14,0.333,0.357,0.439,0.457c0.095,0.117,0.141,0.188,0.141,0.188S20.491,44.963,20.359,44.895z M18.404,35.935
			c-5.277-3.107-1.952-9.035-1.952-9.035c1.373-2.53,2.747-1.084,5.783,2.818c0.228,0.293,0.395,0.579,0.534,0.86
			c-0.035,0.026-0.078,0.042-0.099,0.083c0,0-0.067,0.128-0.174,0.266c-0.097,0.155-0.262,0.344-0.448,0.527
			c-0.167,0.206-0.396,0.33-0.553,0.453c-0.164,0.117-0.273,0.195-0.273,0.195s0.125-0.047,0.313-0.115
			c0.185-0.076,0.461-0.145,0.687-0.303c0.241-0.135,0.478-0.289,0.641-0.438c0.064-0.05,0.101-0.084,0.141-0.12
			C24.015,34.319,19.797,36.567,18.404,35.935z M23.346,43.442c-0.21,0.168-0.589,0.156-0.893,0.158
			c-0.105,0-0.285-0.192-0.295-0.309c-0.008-0.1,0.157-0.261,0.28-0.316c0.268-0.119,0.567-0.166,0.837-0.28
			c0.27-0.115,0.522-0.277,0.781-0.419c0.046,0.043,0.091,0.084,0.137,0.125C23.917,42.756,23.687,43.169,23.346,43.442z
			 M24.733,44.211c-0.07-0.003-0.141-0.005-0.211-0.008c0-0.339-0.008-0.679,0.002-1.017c0.011-0.345,0.041-0.688,0.064-1.059
			c-0.553-0.111-1.005-0.193-1.451-0.301c-0.147-0.036-0.278-0.139-0.599-0.307c0.585,0,0.984-0.055,1.362,0.012
			c0.601,0.104,0.806-0.131,0.768-0.696c-0.017-0.253-0.003-0.508-0.003-0.759c-0.4-0.198-0.794-0.393-1.188-0.587
			c0.016-0.046,0.032-0.093,0.047-0.14c0.283,0,0.581,0.056,0.843-0.017c0.224-0.062,0.408-0.271,0.59-0.399
			c0.136,0.139,0.273,0.334,0.459,0.451c0.176,0.11,0.403,0.137,0.608,0.199c0.004,0.069,0.007,0.139,0.011,0.208
			c-0.28,0.084-0.559,0.168-0.949,0.285c-0.023,0.397-0.049,0.864-0.076,1.36c0.814,0.152,1.614-0.357,2.447,0.195
			c-0.776,0.713-1.694,0.125-2.43,0.521C24.75,42.784,25.237,43.591,24.733,44.211z M26.374,40.688
			c-0.231,0.194-0.463,0.389-0.694,0.582c-0.101-0.084-0.201-0.17-0.302-0.256c0.151-0.259,0.302-0.517,0.453-0.774
			C26.012,40.392,26.193,40.54,26.374,40.688z M28.025,44.088c-0.336,0.066-0.773,0.114-1.035-0.049
			c-0.634-0.397-1.19-0.919-1.778-1.39c0.047-0.071,0.094-0.143,0.14-0.213c0.351,0.197,0.683,0.449,1.057,0.578
			c0.435,0.15,0.911,0.178,1.363,0.287c0.2,0.049,0.387,0.162,0.581,0.246C28.246,43.737,28.166,44.06,28.025,44.088z
			 M30.791,44.647c-0.201,0.619-0.924,0.904-1.541,0.82c-0.334-0.045-0.683-0.133-0.82-0.438c-0.008-0.017-0.014-0.034-0.021-0.052
			c-0.396-1.152,0.995-1.392,1.704-1.461C30.761,43.454,30.97,44.102,30.791,44.647z M29.91,40.715
			c0.768-0.28,1.381-0.173,1.61,0.291c0.182,0.368-0.142,1.286-0.599,1.601c-0.513,0.353-1.082,0.479-1.631,0.11
			c-0.5-0.334-0.789-0.796-0.515-1.425c-0.397-0.045-0.731-0.082-1.083-0.123c0.65-0.484,1.21-0.888,1.743-1.322
			c0.049-0.039-0.068-0.283-0.085-0.344c0.258-0.175,0.49-0.333,0.724-0.49c-0.038-0.059-0.075-0.117-0.114-0.176
			c-0.428,0.023-0.766,0.121-0.968,0.623c-0.176,0.438-0.538,0.736-1.075,0.514c0.174-0.217,0.328-0.445,0.487-0.662
			c-0.739-0.244-0.878-0.619-0.56-1.476c0.222,0.543,0.389,0.951,0.588,1.437c0.176-0.235,0.359-0.453,0.585-0.613
			c0.356-0.254,0.899-0.27,1.366-0.323c0.064-0.007,0.248,0.381,0.242,0.582c-0.008,0.204-0.181,0.404-0.215,0.826
			c0.492-0.083,0.983-0.179,1.479-0.243c0.18-0.023,0.369,0.025,0.555,0.04c-0.066,0.158-0.091,0.36-0.206,0.466
			c-0.522,0.487-1.16,0.617-1.793,0.301c-0.538-0.269-0.746-0.059-0.978,0.483C29.679,40.757,29.8,40.754,29.91,40.715z
			 M37.559,43.632c-0.171-0.035-0.394-0.126-0.677-0.154c-0.141-0.018-0.291-0.035-0.451-0.055c-0.156-0.035-0.328,0.012-0.5,0.004
			c-0.344-0.015-0.698,0.086-1.057,0.141c-0.171,0.061-0.343,0.121-0.512,0.181c-0.176,0.046-0.322,0.146-0.477,0.224
			c-0.143,0.092-0.319,0.137-0.432,0.242c-0.127,0.094-0.248,0.182-0.359,0.264c-0.23,0.162-0.393,0.371-0.521,0.482
			c-0.125,0.121-0.202,0.186-0.202,0.186s0.036-0.094,0.111-0.252c0.096-0.146,0.146-0.397,0.361-0.623
			c0.105-0.116,0.219-0.244,0.34-0.379c0.115-0.149,0.277-0.238,0.438-0.354c0.166-0.104,0.32-0.244,0.521-0.303
			c0.192-0.075,0.388-0.15,0.583-0.227c0.207-0.031,0.414-0.062,0.619-0.094c0.203-0.049,0.408-0.003,0.602,0.004
			c0.193,0.02,0.385,0.018,0.553,0.089c0.168,0.056,0.326,0.109,0.473,0.158c0.293,0.085,0.484,0.289,0.637,0.366
			c0.145,0.099,0.22,0.16,0.22,0.16S37.726,43.675,37.559,43.632z"/>
		<path style="fill:#030104;" d="M29.907,43.761c-0.037,0.17-0.032,0.348-0.042,0.512c-0.127-0.108-0.287-0.248-0.513-0.442
			c-0.212,0.334-0.388,0.61-0.562,0.887c0.021,0.08,0.043,0.159,0.063,0.238c0.435-0.026,0.88-0.005,1.293-0.11
			c0.106-0.029,0.142-0.451,0.153-0.695c0.008-0.15-0.086-0.309-0.157-0.451C30.134,43.681,29.916,43.722,29.907,43.761z"/>
		<path style="fill:#030104;" d="M29.963,42.183c0.352-0.201,0.656-0.482,0.978-0.737c-0.164-0.144-0.328-0.288-0.372-0.327
			c-0.66-0.02-1.057,0.115-1.062,0.638C29.506,41.905,29.904,42.217,29.963,42.183z"/>
		<circle style="fill:#030104;" cx="18.495" cy="30.171" r="0.795"/>
		<path style="fill:#030104;" d="M32.412,8.286c0.059,0.101,0.108,0.195,0.163,0.293c0.292,0.522,0.542,1.011,0.74,1.492
			c0.328,0.794,0.517,1.584,0.549,2.506c0.011,0.327,0.011,0.665-0.021,1.034c-0.017,0.213-0.045,0.425-0.066,0.637
			c-0.161,1.524-0.428,3.037-0.627,4.557c-0.03,0.227-0.021,0.455-0.03,0.683c-0.003,0.09-0.012,0.179-0.012,0.269
			c0,3.007,1.741,6.059,3.664,8.463c0.202,0.252,0.403,0.496,0.608,0.733c0.181,0.211,0.36,0.416,0.541,0.612
			c0.023,0.027,0.049,0.056,0.072,0.082c-0.434-0.474-0.172-2.627-0.093-3.365c0.126-1.174,0.399-2.325,0.687-3.469
			c0.472-1.885,0.867-3.796,1.062-5.727c-0.062,0.022-0.126,0.047-0.193,0.057c-0.191,0.054-0.394,0.059-0.594,0.076
			c-0.4,0.008-0.789-0.041-1.074-0.093c-0.283-0.064-0.472-0.107-0.472-0.107s0.192,0.007,0.479,0.017
			c0.287-0.002,0.668-0.027,1.032-0.104c0.179-0.05,0.359-0.088,0.505-0.164c0.159-0.054,0.269-0.154,0.356-0.214
			c0.003-0.005,0.005-0.005,0.008-0.009c0.048-0.603,0.075-1.208,0.077-1.815c-0.102,0.045-0.206,0.084-0.318,0.102
			c-0.191,0.054-0.394,0.059-0.594,0.076c-0.4,0.008-0.789-0.041-1.075-0.093c-0.282-0.064-0.471-0.107-0.471-0.107
			s0.192,0.007,0.479,0.017c0.287-0.006,0.668-0.032,1.031-0.108c0.178-0.05,0.359-0.088,0.506-0.164
			c0.158-0.054,0.268-0.154,0.355-0.214c0.02-0.034,0.036-0.053,0.059-0.068c0.01,0.001,0.016-0.016,0.022-0.032
			c-0.002-0.071,0.001-0.142-0.002-0.213c-0.122-3.618-0.503-8.212-3.992-10.284c-0.578-0.343-1.438-0.583-2.263-0.583
			c-1.125,0-2.182,0.449-2.346,1.696c-0.002,0.008,0,0.016-0.002,0.023c-0.02,0.163-0.017,0.33-0.002,0.5
			c0.021,0.231,0.071,0.466,0.143,0.703C31.552,6.809,32.043,7.641,32.412,8.286z M33.853,4.477c0.009,0.001,0.017,0.004,0.025,0.01
			c0,0.001,0.09,0.067,0.211,0.173c0.062,0.052,0.136,0.114,0.207,0.182c0.19,0.181,0.506,0.398,0.521,0.681
			c0.018,0.304-0.13,0.519-0.432,0.33c-0.269-0.167-0.367-0.508-0.442-0.796c-0.028-0.095-0.05-0.187-0.067-0.268
			c-0.041-0.156-0.06-0.267-0.06-0.267C33.814,4.496,33.83,4.475,33.853,4.477z M32.868,5.082c0.009,0.001,0.017,0.005,0.025,0.01
			c0,0,0.089,0.066,0.211,0.173c0.062,0.053,0.136,0.114,0.208,0.182c0.189,0.182,0.505,0.399,0.521,0.682
			c0.017,0.303-0.131,0.518-0.432,0.33c-0.268-0.167-0.367-0.507-0.441-0.796c-0.029-0.095-0.051-0.187-0.068-0.267
			c-0.041-0.158-0.059-0.268-0.059-0.267C32.828,5.101,32.845,5.081,32.868,5.082z"/>
	</g>
</g>
<g>
</g>
<g>
</g>
<g>
</g>
<g>
</g>
<g>
</g>
<g>
</g>
<g>
</g>
<g>
</g>
<g>
</g>
<g>
</g>
<g>
</g>
<g>
</g>
<g>
</g>
<g>
</g>
<g>
</g>
</svg>
